<svg width="68" height="68" viewBox="0 0 68 68" fill="none" xmlns="http://www.w3.org/2000/svg">
<path d="M35.9822 20.9609C35.3845 20.5987 34.6989 20.4072 34 20.4072C33.3011 20.4072 32.6155 20.5987 32.0178 20.9609L23.0928 26.3703C22.5304 26.7111 22.0653 27.1911 21.7425 27.7641C21.4197 28.337 21.2501 28.9835 21.25 29.6411V38.3587C21.2501 39.0163 21.4197 39.6628 21.7425 40.2357C22.0653 40.8087 22.5304 41.2887 23.0928 41.6295L32.0178 47.0389C32.6155 47.4011 33.3011 47.5926 34 47.5926C34.6989 47.5926 35.3845 47.4011 35.9822 47.0389L44.9072 41.6295C45.4696 41.2887 45.9347 40.8087 46.2575 40.2357C46.5803 39.6628 46.7499 39.0163 46.75 38.3587V29.6411C46.7499 28.9835 46.5803 28.337 46.2575 27.7641C45.9347 27.1911 45.4696 26.7111 44.9072 26.3703L35.9822 20.9609Z" fill="#00BFFF"/>
<path d="M15.269 33.8894C15.458 33.8892 15.6437 33.84 15.808 33.7467C15.9324 33.6758 16.0415 33.5811 16.1292 33.468C16.2168 33.3548 16.2812 33.2255 16.3188 33.0874C16.3563 32.9493 16.3662 32.8051 16.3479 32.6632C16.3296 32.5212 16.2834 32.3843 16.212 32.2603C14.3903 29.0993 14.2408 26.4918 15.3875 24.5129C16.9657 21.7935 21.3209 20.7886 27.0384 21.8245C27.3223 21.8759 27.615 21.8128 27.8525 21.6489C28.09 21.4851 28.2529 21.2338 28.3057 20.9502C28.3312 20.8094 28.3288 20.665 28.2985 20.5252C28.2682 20.3853 28.2107 20.2529 28.1292 20.1353C28.0477 20.0177 27.9438 19.9173 27.8235 19.8399C27.7032 19.7625 27.5688 19.7095 27.428 19.684C24.1973 19.0997 21.2301 19.1107 18.8627 19.7172C16.3946 20.3492 14.5463 21.6297 13.5004 23.4227C11.9509 26.1 12.0948 29.4801 14.3216 33.3416C14.4172 33.5083 14.5552 33.6468 14.7216 33.743C14.888 33.8392 15.0768 33.8897 15.269 33.8894Z" fill="black" stroke="#DEDEDE" stroke-width="4" stroke-linecap="round" stroke-linejoin="round"/>
<path d="M45.6887 21.5744C49.2569 21.6209 51.5114 22.6048 52.6381 24.5472C54.2108 27.2565 52.917 31.4988 49.1772 35.8938C49.0427 36.0521 48.9563 36.2456 48.9284 36.4514C48.9004 36.6573 48.932 36.8668 49.0195 37.0553C49.1069 37.2437 49.2466 37.4031 49.4218 37.5146C49.5971 37.6262 49.8007 37.6851 50.0084 37.6845C50.1666 37.6847 50.3229 37.6505 50.4666 37.5844C50.6103 37.5183 50.7379 37.4218 50.8407 37.3016C52.9568 34.8147 54.4211 32.2613 55.0741 29.9183C55.7536 27.4834 55.5644 25.2466 54.5207 23.457C52.9934 20.8251 50.0792 19.456 45.7119 19.3985H45.6964C45.4079 19.3967 45.1305 19.5096 44.9252 19.7124C44.7199 19.9152 44.6036 20.1912 44.6018 20.4798C44.6001 20.7683 44.713 21.0457 44.9158 21.251C45.1186 21.4563 45.3946 21.5726 45.6831 21.5744H45.6887Z" fill="black" stroke="#DEDEDE" stroke-width="4" stroke-linecap="round" stroke-linejoin="round"/>
<path d="M41.7993 51.5855C41.5517 51.4378 41.2558 51.394 40.9759 51.4634C40.6961 51.5328 40.455 51.71 40.3052 51.9562C38.489 54.9611 36.2577 56.6158 34.022 56.6158C30.8688 56.6158 27.8241 53.3718 25.8618 47.9365C25.7631 47.6654 25.5612 47.4444 25.3002 47.3216C25.0391 47.1989 24.7401 47.1843 24.4684 47.2813C24.3331 47.3288 24.2086 47.4025 24.102 47.4983C23.9953 47.5941 23.9086 47.71 23.8469 47.8394C23.7852 47.9688 23.7497 48.1091 23.7424 48.2522C23.7351 48.3954 23.7561 48.5386 23.8043 48.6736C24.9111 51.7471 26.4019 54.2904 28.1207 56.0292C29.9037 57.8376 31.9446 58.7961 34.022 58.7961C37.0524 58.7961 39.9477 56.7674 42.1734 53.084C42.2474 52.9615 42.2964 52.8255 42.3177 52.684C42.3389 52.5424 42.3319 52.398 42.2972 52.2592C42.2624 52.1203 42.2005 51.9897 42.1151 51.8748C42.0296 51.76 41.9223 51.6631 41.7993 51.5899V51.5855Z" fill="black" stroke="#DEDEDE" stroke-width="4" stroke-linecap="round" stroke-linejoin="round"/>
<path d="M53.4459 43.1352C52.8605 43.1323 52.2834 43.2739 51.7659 43.5474C51.2483 43.8209 50.8063 44.2179 50.4789 44.7032C50.1516 45.1886 49.9491 45.7472 49.8894 46.3295C49.8297 46.9118 49.9146 47.4999 50.1366 48.0415C45.5103 50.1997 36.8775 48.5717 28.901 43.9885C25.2586 41.8967 22.0213 39.3556 19.5377 36.6407C19.3423 36.4284 19.071 36.3018 18.7828 36.2883C18.4945 36.2748 18.2126 36.3756 17.9982 36.5688C17.892 36.6647 17.8058 36.7808 17.7446 36.9102C17.6834 37.0397 17.6485 37.18 17.6418 37.323C17.6351 37.466 17.6568 37.6089 17.7056 37.7435C17.7545 37.8781 17.8295 38.0017 17.9263 38.1072C20.5593 40.9848 23.9781 43.672 27.8131 45.8745C32.2711 48.4344 36.9185 50.1499 41.2526 50.8339C42.5335 51.0418 43.8286 51.1495 45.1263 51.156C47.6851 51.156 49.8854 50.6801 51.602 49.7404C52.072 50.0275 52.6022 50.2017 53.1508 50.2494C53.6995 50.2971 54.2518 50.217 54.7643 50.0154C55.2768 49.8137 55.7356 49.4961 56.1047 49.0873C56.4738 48.6785 56.7431 48.1897 56.8915 47.6594C57.0399 47.129 57.0634 46.5714 56.9601 46.0305C56.8568 45.4895 56.6295 44.9798 56.296 44.5415C55.9626 44.1031 55.5321 43.748 55.0384 43.504C54.5446 43.26 54.001 43.1338 53.4503 43.1352H53.4459ZM53.4459 48.0781C53.1317 48.0781 52.8267 47.972 52.5804 47.777C52.5125 47.6833 52.4303 47.6007 52.3369 47.5324C52.145 47.2825 52.0433 46.975 52.0484 46.66C52.0534 46.345 52.1649 46.0409 52.3648 45.7973C52.5646 45.5537 52.841 45.3849 53.149 45.3183C53.4569 45.2517 53.7783 45.2913 54.061 45.4306C54.3436 45.57 54.5707 45.8008 54.7054 46.0856C54.8402 46.3705 54.8746 46.6925 54.803 46.9993C54.7315 47.3062 54.5582 47.5798 54.3114 47.7757C54.0646 47.9715 53.7587 48.0781 53.4437 48.0781H53.4459Z" fill="black" stroke="#DEDEDE" stroke-width="4" stroke-linecap="round" stroke-linejoin="round"/>
<path d="M14.7521 43.1407C14.8152 40.7878 16.1256 37.9389 18.4797 35.0436C21.0463 31.8948 24.754 28.8457 28.921 26.4495C32.601 24.3356 36.1371 22.9189 39.7751 22.1431C39.917 22.1154 40.0519 22.0597 40.1721 21.9793C40.2922 21.8989 40.3951 21.7953 40.4748 21.6747C40.5544 21.554 40.6092 21.4187 40.636 21.2766C40.6627 21.1346 40.6609 20.9886 40.6306 20.8472C40.6003 20.7059 40.5421 20.572 40.4595 20.4533C40.3768 20.3347 40.2714 20.2338 40.1493 20.1564C40.0272 20.079 39.8909 20.0267 39.7483 20.0026C39.6058 19.9784 39.4599 19.983 39.3191 20.0159C35.462 20.8382 31.7067 22.3401 27.8319 24.5636C18.5151 29.9148 12.2962 37.7497 12.5795 43.7284C11.8706 44.1972 11.3517 44.9031 11.1158 45.7196C10.88 46.5361 10.9426 47.41 11.2924 48.1845C11.6422 48.9591 12.2564 49.5838 13.0249 49.9468C13.7934 50.3097 14.6661 50.3872 15.4865 50.1652C16.3069 49.9433 17.0215 49.4365 17.5022 48.7356C17.983 48.0348 18.1985 47.1856 18.1101 46.3403C18.0217 45.495 17.6353 44.7088 17.02 44.1225C16.4047 43.5362 15.6007 43.1882 14.7521 43.1407ZM14.554 48.0781C14.2808 48.0761 14.0143 47.9933 13.7881 47.8401C13.5619 47.6869 13.3861 47.4701 13.283 47.2172C13.1798 46.9642 13.1538 46.6863 13.2083 46.4186C13.2628 46.1509 13.3953 45.9053 13.5892 45.7129C13.7831 45.5204 14.0296 45.3896 14.2977 45.337C14.5658 45.2844 14.8434 45.3124 15.0957 45.4174C15.3479 45.5224 15.5634 45.6997 15.7149 45.927C15.8665 46.1543 15.9474 46.4214 15.9474 46.6946C15.9457 47.0627 15.798 47.4151 15.5367 47.6744C15.2755 47.9338 14.9221 48.0789 14.554 48.0781Z" fill="black" stroke="#DEDEDE" stroke-width="4" stroke-linecap="round" stroke-linejoin="round"/>
<path d="M34.0221 16.327C34.5986 16.3285 35.1669 16.1902 35.6783 15.924C36.1896 15.6578 36.6289 15.2716 36.9584 14.7985C38.9384 16.0924 40.7214 18.6722 42.0285 22.1165C43.4673 25.9227 44.2243 30.4593 44.2243 35.2362C44.2243 39.3511 43.6499 43.2436 42.5642 46.7023C42.5207 46.8384 42.5047 46.9818 42.5173 47.1241C42.5298 47.2665 42.5706 47.4049 42.6372 47.5313C42.7035 47.6585 42.7944 47.7714 42.9046 47.8633C43.0148 47.9553 43.1421 48.0245 43.2791 48.067C43.5548 48.1521 43.8529 48.125 44.1086 47.9915C44.3644 47.858 44.5571 47.629 44.6449 47.3542C45.7981 43.6864 46.408 39.5692 46.408 35.2362C46.408 30.0155 45.548 25.0793 43.9211 20.9588C42.3262 16.9213 40.1436 14.0526 37.597 12.6403C37.575 11.9385 37.3468 11.2586 36.9409 10.6856C36.535 10.1126 35.9693 9.67186 35.3145 9.41835C34.6596 9.16483 33.9446 9.10979 33.2587 9.2601C32.5727 9.4104 31.9463 9.75939 31.4574 10.2635C30.9686 10.7676 30.639 11.4046 30.5099 12.0948C30.3808 12.785 30.4578 13.498 30.7314 14.1447C31.0049 14.7915 31.4629 15.3433 32.0481 15.7314C32.6333 16.1195 33.3199 16.3266 34.0221 16.327ZM34.0221 11.3841C34.2953 11.3861 34.5618 11.4689 34.788 11.6221C35.0142 11.7753 35.1899 11.9921 35.2931 12.245C35.3963 12.498 35.4223 12.7759 35.3678 13.0436C35.3133 13.3113 35.1808 13.5568 34.9869 13.7493C34.793 13.9418 34.5465 14.0726 34.2784 14.1252C34.0103 14.1778 33.7326 14.1498 33.4804 14.0448C33.2282 13.9398 33.0127 13.7625 32.8612 13.5352C32.7096 13.3079 32.6287 13.0408 32.6287 12.7676C32.6304 12.3995 32.7781 12.0471 33.0393 11.7878C33.3006 11.5284 33.654 11.3833 34.0221 11.3841Z" fill="black" stroke="#DEDEDE" stroke-width="4" stroke-linecap="round" stroke-linejoin="round"/>
<path d="M33.4465 32.6008C32.7951 32.7403 32.2184 33.1162 31.8278 33.6558C31.4372 34.1955 31.2603 34.8607 31.3313 35.5231C31.4022 36.1855 31.716 36.7982 32.2121 37.2429C32.7082 37.6875 33.3514 37.9327 34.0176 37.931C34.2096 37.9308 34.401 37.9104 34.5887 37.8701C34.9387 37.7992 35.2711 37.6594 35.5666 37.4589C35.8621 37.2584 36.1148 37.0012 36.3101 36.7022C36.5053 36.4033 36.6393 36.0685 36.7041 35.7174C36.769 35.3662 36.7634 35.0057 36.6877 34.6567C36.6121 34.3077 36.4679 33.9772 36.2635 33.6844C36.059 33.3916 35.7985 33.1424 35.497 32.9511C35.1954 32.7598 34.8589 32.6304 34.5069 32.5702C34.1549 32.5101 33.7945 32.5205 33.4465 32.6008Z" fill="black" stroke="#DEDEDE" stroke-width="4" stroke-linecap="round" stroke-linejoin="round"/>
<path d="M15.269 33.8894C15.458 33.8892 15.6437 33.84 15.808 33.7467C15.9324 33.6758 16.0415 33.5811 16.1292 33.468C16.2168 33.3548 16.2812 33.2255 16.3188 33.0874C16.3563 32.9493 16.3662 32.8051 16.3479 32.6632C16.3296 32.5212 16.2834 32.3843 16.212 32.2603C14.3903 29.0993 14.2408 26.4918 15.3875 24.5129C16.9657 21.7935 21.3209 20.7886 27.0384 21.8245C27.3223 21.8759 27.615 21.8128 27.8525 21.6489C28.09 21.4851 28.2529 21.2338 28.3057 20.9502C28.3312 20.8094 28.3288 20.665 28.2985 20.5252C28.2682 20.3853 28.2107 20.2529 28.1292 20.1353C28.0477 20.0177 27.9438 19.9173 27.8235 19.8399C27.7032 19.7625 27.5688 19.7095 27.428 19.684C24.1973 19.0997 21.2301 19.1107 18.8627 19.7172C16.3946 20.3492 14.5463 21.6297 13.5004 23.4227C11.9509 26.1 12.0948 29.4801 14.3216 33.3416C14.4172 33.5083 14.5552 33.6468 14.7216 33.743C14.888 33.8392 15.0768 33.8897 15.269 33.8894Z" fill="black" stroke="black" stroke-width="0.000666667"/>
<path d="M45.6887 21.5744C49.2569 21.6209 51.5114 22.6048 52.6381 24.5472C54.2108 27.2565 52.917 31.4988 49.1772 35.8938C49.0427 36.0521 48.9563 36.2456 48.9284 36.4514C48.9004 36.6573 48.932 36.8668 49.0195 37.0553C49.1069 37.2437 49.2466 37.4031 49.4218 37.5146C49.5971 37.6262 49.8007 37.6851 50.0084 37.6845C50.1666 37.6847 50.3229 37.6505 50.4666 37.5844C50.6103 37.5183 50.7379 37.4218 50.8407 37.3016C52.9568 34.8147 54.4211 32.2613 55.0741 29.9183C55.7536 27.4834 55.5644 25.2466 54.5207 23.457C52.9934 20.8251 50.0792 19.456 45.7119 19.3985H45.6964C45.4079 19.3967 45.1305 19.5096 44.9252 19.7124C44.7199 19.9152 44.6036 20.1912 44.6018 20.4798C44.6001 20.7683 44.713 21.0457 44.9158 21.251C45.1186 21.4563 45.3946 21.5726 45.6831 21.5744H45.6887Z" fill="black" stroke="black" stroke-width="0.000666667"/>
<path d="M41.7993 51.5855C41.5517 51.4378 41.2558 51.394 40.9759 51.4634C40.6961 51.5328 40.455 51.71 40.3052 51.9562C38.489 54.9611 36.2577 56.6158 34.022 56.6158C30.8688 56.6158 27.8241 53.3718 25.8618 47.9365C25.7631 47.6654 25.5612 47.4444 25.3002 47.3216C25.0391 47.1989 24.7401 47.1843 24.4684 47.2813C24.3331 47.3288 24.2086 47.4025 24.102 47.4983C23.9953 47.5941 23.9086 47.71 23.8469 47.8394C23.7852 47.9688 23.7497 48.1091 23.7424 48.2522C23.7351 48.3954 23.7561 48.5386 23.8043 48.6736C24.9111 51.7471 26.4019 54.2904 28.1207 56.0292C29.9037 57.8376 31.9446 58.7961 34.022 58.7961C37.0524 58.7961 39.9477 56.7674 42.1734 53.084C42.2474 52.9615 42.2964 52.8255 42.3177 52.684C42.3389 52.5424 42.3319 52.398 42.2972 52.2592C42.2624 52.1203 42.2005 51.9897 42.1151 51.8748C42.0296 51.76 41.9223 51.6631 41.7993 51.5899V51.5855Z" fill="black" stroke="black" stroke-width="0.000666667"/>
<path d="M53.4459 43.1352C52.8605 43.1323 52.2834 43.2739 51.7659 43.5474C51.2483 43.8209 50.8063 44.2179 50.4789 44.7032C50.1516 45.1886 49.9491 45.7472 49.8894 46.3295C49.8297 46.9118 49.9146 47.4999 50.1366 48.0415C45.5103 50.1997 36.8775 48.5717 28.901 43.9885C25.2586 41.8967 22.0213 39.3556 19.5377 36.6407C19.3423 36.4284 19.071 36.3018 18.7828 36.2883C18.4945 36.2748 18.2126 36.3756 17.9982 36.5688C17.892 36.6647 17.8058 36.7808 17.7446 36.9102C17.6834 37.0397 17.6485 37.18 17.6418 37.323C17.6351 37.466 17.6568 37.6089 17.7056 37.7435C17.7545 37.8781 17.8295 38.0017 17.9263 38.1072C20.5593 40.9848 23.9781 43.672 27.8131 45.8745C32.2711 48.4344 36.9185 50.1499 41.2526 50.8339C42.5335 51.0418 43.8286 51.1495 45.1263 51.156C47.6851 51.156 49.8854 50.6801 51.602 49.7404C52.072 50.0275 52.6022 50.2017 53.1508 50.2494C53.6995 50.2971 54.2518 50.217 54.7643 50.0154C55.2768 49.8137 55.7356 49.4961 56.1047 49.0873C56.4738 48.6785 56.7431 48.1897 56.8915 47.6594C57.0399 47.129 57.0634 46.5714 56.9601 46.0305C56.8568 45.4895 56.6295 44.9798 56.296 44.5415C55.9626 44.1031 55.5321 43.748 55.0384 43.504C54.5446 43.26 54.001 43.1338 53.4503 43.1352H53.4459ZM53.4459 48.0781C53.1317 48.0781 52.8267 47.972 52.5804 47.777C52.5125 47.6833 52.4303 47.6007 52.3369 47.5324C52.145 47.2825 52.0433 46.975 52.0484 46.66C52.0534 46.345 52.1649 46.0409 52.3648 45.7973C52.5646 45.5537 52.841 45.3849 53.149 45.3183C53.4569 45.2517 53.7783 45.2913 54.061 45.4306C54.3436 45.57 54.5707 45.8008 54.7054 46.0856C54.8402 46.3705 54.8746 46.6925 54.803 46.9993C54.7315 47.3062 54.5582 47.5798 54.3114 47.7757C54.0646 47.9715 53.7587 48.0781 53.4437 48.0781H53.4459Z" fill="black" stroke="black" stroke-width="0.000666667"/>
<path d="M14.7521 43.1407C14.8152 40.7878 16.1256 37.9389 18.4797 35.0436C21.0463 31.8948 24.754 28.8457 28.921 26.4495C32.601 24.3356 36.1371 22.9189 39.7751 22.1431C39.917 22.1154 40.0519 22.0597 40.1721 21.9793C40.2922 21.8989 40.3951 21.7953 40.4748 21.6747C40.5544 21.554 40.6092 21.4187 40.636 21.2766C40.6627 21.1346 40.6609 20.9886 40.6306 20.8472C40.6003 20.7059 40.5421 20.572 40.4595 20.4533C40.3768 20.3347 40.2714 20.2338 40.1493 20.1564C40.0272 20.079 39.8909 20.0267 39.7483 20.0026C39.6058 19.9784 39.4599 19.983 39.3191 20.0159C35.462 20.8382 31.7067 22.3401 27.8319 24.5636C18.5151 29.9148 12.2962 37.7497 12.5795 43.7284C11.8706 44.1972 11.3517 44.9031 11.1158 45.7196C10.88 46.5361 10.9426 47.41 11.2924 48.1845C11.6422 48.9591 12.2564 49.5838 13.0249 49.9468C13.7934 50.3097 14.6661 50.3872 15.4865 50.1652C16.3069 49.9433 17.0215 49.4365 17.5022 48.7356C17.983 48.0348 18.1985 47.1856 18.1101 46.3403C18.0217 45.495 17.6353 44.7088 17.02 44.1225C16.4047 43.5362 15.6007 43.1882 14.7521 43.1407ZM14.554 48.0781C14.2808 48.0761 14.0143 47.9933 13.7881 47.8401C13.5619 47.6869 13.3861 47.4701 13.283 47.2172C13.1798 46.9642 13.1538 46.6863 13.2083 46.4186C13.2628 46.1509 13.3953 45.9053 13.5892 45.7129C13.7831 45.5204 14.0296 45.3896 14.2977 45.337C14.5658 45.2844 14.8434 45.3124 15.0957 45.4174C15.3479 45.5224 15.5634 45.6997 15.7149 45.927C15.8665 46.1543 15.9474 46.4214 15.9474 46.6946C15.9457 47.0627 15.798 47.4151 15.5367 47.6744C15.2755 47.9338 14.9221 48.0789 14.554 48.0781Z" fill="black" stroke="black" stroke-width="0.000666667"/>
<path d="M34.0221 16.327C34.5986 16.3285 35.1669 16.1902 35.6783 15.924C36.1896 15.6578 36.6289 15.2716 36.9584 14.7985C38.9384 16.0924 40.7214 18.6722 42.0285 22.1165C43.4673 25.9227 44.2243 30.4593 44.2243 35.2362C44.2243 39.3511 43.6499 43.2436 42.5642 46.7023C42.5207 46.8384 42.5047 46.9818 42.5173 47.1241C42.5298 47.2665 42.5706 47.4049 42.6372 47.5313C42.7035 47.6585 42.7944 47.7714 42.9046 47.8633C43.0148 47.9553 43.1421 48.0245 43.2791 48.067C43.5548 48.1521 43.8529 48.125 44.1086 47.9915C44.3644 47.858 44.5571 47.629 44.6449 47.3542C45.7981 43.6864 46.408 39.5692 46.408 35.2362C46.408 30.0155 45.548 25.0793 43.9211 20.9588C42.3262 16.9213 40.1436 14.0526 37.597 12.6403C37.575 11.9385 37.3468 11.2586 36.9409 10.6856C36.535 10.1126 35.9693 9.67186 35.3145 9.41835C34.6596 9.16483 33.9446 9.10979 33.2587 9.2601C32.5727 9.4104 31.9463 9.75939 31.4574 10.2635C30.9686 10.7676 30.639 11.4046 30.5099 12.0948C30.3808 12.785 30.4578 13.498 30.7314 14.1447C31.0049 14.7915 31.4629 15.3433 32.0481 15.7314C32.6333 16.1195 33.3199 16.3266 34.0221 16.327ZM34.0221 11.3841C34.2953 11.3861 34.5618 11.4689 34.788 11.6221C35.0142 11.7753 35.1899 11.9921 35.2931 12.245C35.3963 12.498 35.4223 12.7759 35.3678 13.0436C35.3133 13.3113 35.1808 13.5568 34.9869 13.7493C34.793 13.9418 34.5465 14.0726 34.2784 14.1252C34.0103 14.1778 33.7326 14.1498 33.4804 14.0448C33.2282 13.9398 33.0127 13.7625 32.8612 13.5352C32.7096 13.3079 32.6287 13.0408 32.6287 12.7676C32.6304 12.3995 32.7781 12.0471 33.0393 11.7878C33.3006 11.5284 33.654 11.3833 34.0221 11.3841Z" fill="black" stroke="black" stroke-width="0.000666667"/>
<path d="M33.4465 32.6008C32.7951 32.7403 32.2184 33.1162 31.8278 33.6558C31.4372 34.1955 31.2603 34.8607 31.3313 35.5231C31.4022 36.1855 31.716 36.7982 32.2121 37.2429C32.7082 37.6875 33.3514 37.9327 34.0176 37.931C34.2096 37.9308 34.401 37.9104 34.5887 37.8701C34.9387 37.7992 35.2711 37.6594 35.5666 37.4589C35.8621 37.2584 36.1148 37.0012 36.3101 36.7022C36.5053 36.4033 36.6393 36.0685 36.7041 35.7174C36.769 35.3662 36.7634 35.0057 36.6877 34.6567C36.6121 34.3077 36.4679 33.9772 36.2635 33.6844C36.059 33.3916 35.7985 33.1424 35.497 32.9511C35.1954 32.7598 34.8589 32.6304 34.5069 32.5702C34.1549 32.5101 33.7945 32.5205 33.4465 32.6008Z" fill="black" stroke="black" stroke-width="0.000666667"/>
</svg>
