<svg xmlns="http://www.w3.org/2000/svg" viewBox="0 0 100 100" preserveAspectRatio="xMidYMid" width="198" height="198" style="shape-rendering: auto; display: block; background: rgb(255, 255, 255);" xmlns:xlink="http://www.w3.org/1999/xlink"><g><g transform="rotate(0 50 50)">
  <rect fill="#00305f" height="11" width="19" ry="5.5" rx="9.5" y="21.5" x="40.5">
    <animate repeatCount="indefinite" begin="-1.375s" dur="1.3888888888888888s" keyTimes="0;1" values="1;0" attributeName="opacity"></animate>
  </rect>
</g><g transform="rotate(3.6 50 50)">
  <rect fill="#00305f" height="11" width="19" ry="5.5" rx="9.5" y="21.5" x="40.5">
    <animate repeatCount="indefinite" begin="-1.3611111111111112s" dur="1.3888888888888888s" keyTimes="0;1" values="1;0" attributeName="opacity"></animate>
  </rect>
</g><g transform="rotate(7.2 50 50)">
  <rect fill="#00305f" height="11" width="19" ry="5.5" rx="9.5" y="21.5" x="40.5">
    <animate repeatCount="indefinite" begin="-1.3472222222222223s" dur="1.3888888888888888s" keyTimes="0;1" values="1;0" attributeName="opacity"></animate>
  </rect>
</g><g transform="rotate(10.8 50 50)">
  <rect fill="#00305f" height="11" width="19" ry="5.5" rx="9.5" y="21.5" x="40.5">
    <animate repeatCount="indefinite" begin="-1.3333333333333333s" dur="1.3888888888888888s" keyTimes="0;1" values="1;0" attributeName="opacity"></animate>
  </rect>
</g><g transform="rotate(14.4 50 50)">
  <rect fill="#00305f" height="11" width="19" ry="5.5" rx="9.5" y="21.5" x="40.5">
    <animate repeatCount="indefinite" begin="-1.3194444444444444s" dur="1.3888888888888888s" keyTimes="0;1" values="1;0" attributeName="opacity"></animate>
  </rect>
</g><g transform="rotate(18 50 50)">
  <rect fill="#00305f" height="11" width="19" ry="5.5" rx="9.5" y="21.5" x="40.5">
    <animate repeatCount="indefinite" begin="-1.3055555555555556s" dur="1.3888888888888888s" keyTimes="0;1" values="1;0" attributeName="opacity"></animate>
  </rect>
</g><g transform="rotate(21.6 50 50)">
  <rect fill="#00305f" height="11" width="19" ry="5.5" rx="9.5" y="21.5" x="40.5">
    <animate repeatCount="indefinite" begin="-1.2916666666666667s" dur="1.3888888888888888s" keyTimes="0;1" values="1;0" attributeName="opacity"></animate>
  </rect>
</g><g transform="rotate(25.2 50 50)">
  <rect fill="#00305f" height="11" width="19" ry="5.5" rx="9.5" y="21.5" x="40.5">
    <animate repeatCount="indefinite" begin="-1.2777777777777777s" dur="1.3888888888888888s" keyTimes="0;1" values="1;0" attributeName="opacity"></animate>
  </rect>
</g><g transform="rotate(28.8 50 50)">
  <rect fill="#00305f" height="11" width="19" ry="5.5" rx="9.5" y="21.5" x="40.5">
    <animate repeatCount="indefinite" begin="-1.2638888888888888s" dur="1.3888888888888888s" keyTimes="0;1" values="1;0" attributeName="opacity"></animate>
  </rect>
</g><g transform="rotate(32.4 50 50)">
  <rect fill="#00305f" height="11" width="19" ry="5.5" rx="9.5" y="21.5" x="40.5">
    <animate repeatCount="indefinite" begin="-1.25s" dur="1.3888888888888888s" keyTimes="0;1" values="1;0" attributeName="opacity"></animate>
  </rect>
</g><g transform="rotate(36 50 50)">
  <rect fill="#00305f" height="11" width="19" ry="5.5" rx="9.5" y="21.5" x="40.5">
    <animate repeatCount="indefinite" begin="-1.2361111111111112s" dur="1.3888888888888888s" keyTimes="0;1" values="1;0" attributeName="opacity"></animate>
  </rect>
</g><g transform="rotate(39.6 50 50)">
  <rect fill="#00305f" height="11" width="19" ry="5.5" rx="9.5" y="21.5" x="40.5">
    <animate repeatCount="indefinite" begin="-1.2222222222222223s" dur="1.3888888888888888s" keyTimes="0;1" values="1;0" attributeName="opacity"></animate>
  </rect>
</g><g transform="rotate(43.2 50 50)">
  <rect fill="#00305f" height="11" width="19" ry="5.5" rx="9.5" y="21.5" x="40.5">
    <animate repeatCount="indefinite" begin="-1.2083333333333333s" dur="1.3888888888888888s" keyTimes="0;1" values="1;0" attributeName="opacity"></animate>
  </rect>
</g><g transform="rotate(46.8 50 50)">
  <rect fill="#00305f" height="11" width="19" ry="5.5" rx="9.5" y="21.5" x="40.5">
    <animate repeatCount="indefinite" begin="-1.1944444444444444s" dur="1.3888888888888888s" keyTimes="0;1" values="1;0" attributeName="opacity"></animate>
  </rect>
</g><g transform="rotate(50.4 50 50)">
  <rect fill="#00305f" height="11" width="19" ry="5.5" rx="9.5" y="21.5" x="40.5">
    <animate repeatCount="indefinite" begin="-1.1805555555555556s" dur="1.3888888888888888s" keyTimes="0;1" values="1;0" attributeName="opacity"></animate>
  </rect>
</g><g transform="rotate(54 50 50)">
  <rect fill="#00305f" height="11" width="19" ry="5.5" rx="9.5" y="21.5" x="40.5">
    <animate repeatCount="indefinite" begin="-1.1666666666666667s" dur="1.3888888888888888s" keyTimes="0;1" values="1;0" attributeName="opacity"></animate>
  </rect>
</g><g transform="rotate(57.6 50 50)">
  <rect fill="#00305f" height="11" width="19" ry="5.5" rx="9.5" y="21.5" x="40.5">
    <animate repeatCount="indefinite" begin="-1.1527777777777777s" dur="1.3888888888888888s" keyTimes="0;1" values="1;0" attributeName="opacity"></animate>
  </rect>
</g><g transform="rotate(61.2 50 50)">
  <rect fill="#00305f" height="11" width="19" ry="5.5" rx="9.5" y="21.5" x="40.5">
    <animate repeatCount="indefinite" begin="-1.1388888888888888s" dur="1.3888888888888888s" keyTimes="0;1" values="1;0" attributeName="opacity"></animate>
  </rect>
</g><g transform="rotate(64.8 50 50)">
  <rect fill="#00305f" height="11" width="19" ry="5.5" rx="9.5" y="21.5" x="40.5">
    <animate repeatCount="indefinite" begin="-1.125s" dur="1.3888888888888888s" keyTimes="0;1" values="1;0" attributeName="opacity"></animate>
  </rect>
</g><g transform="rotate(68.4 50 50)">
  <rect fill="#00305f" height="11" width="19" ry="5.5" rx="9.5" y="21.5" x="40.5">
    <animate repeatCount="indefinite" begin="-1.1111111111111112s" dur="1.3888888888888888s" keyTimes="0;1" values="1;0" attributeName="opacity"></animate>
  </rect>
</g><g transform="rotate(72 50 50)">
  <rect fill="#00305f" height="11" width="19" ry="5.5" rx="9.5" y="21.5" x="40.5">
    <animate repeatCount="indefinite" begin="-1.0972222222222223s" dur="1.3888888888888888s" keyTimes="0;1" values="1;0" attributeName="opacity"></animate>
  </rect>
</g><g transform="rotate(75.6 50 50)">
  <rect fill="#00305f" height="11" width="19" ry="5.5" rx="9.5" y="21.5" x="40.5">
    <animate repeatCount="indefinite" begin="-1.0833333333333333s" dur="1.3888888888888888s" keyTimes="0;1" values="1;0" attributeName="opacity"></animate>
  </rect>
</g><g transform="rotate(79.2 50 50)">
  <rect fill="#00305f" height="11" width="19" ry="5.5" rx="9.5" y="21.5" x="40.5">
    <animate repeatCount="indefinite" begin="-1.0694444444444444s" dur="1.3888888888888888s" keyTimes="0;1" values="1;0" attributeName="opacity"></animate>
  </rect>
</g><g transform="rotate(82.8 50 50)">
  <rect fill="#00305f" height="11" width="19" ry="5.5" rx="9.5" y="21.5" x="40.5">
    <animate repeatCount="indefinite" begin="-1.0555555555555556s" dur="1.3888888888888888s" keyTimes="0;1" values="1;0" attributeName="opacity"></animate>
  </rect>
</g><g transform="rotate(86.4 50 50)">
  <rect fill="#00305f" height="11" width="19" ry="5.5" rx="9.5" y="21.5" x="40.5">
    <animate repeatCount="indefinite" begin="-1.0416666666666667s" dur="1.3888888888888888s" keyTimes="0;1" values="1;0" attributeName="opacity"></animate>
  </rect>
</g><g transform="rotate(90 50 50)">
  <rect fill="#00305f" height="11" width="19" ry="5.5" rx="9.5" y="21.5" x="40.5">
    <animate repeatCount="indefinite" begin="-1.0277777777777777s" dur="1.3888888888888888s" keyTimes="0;1" values="1;0" attributeName="opacity"></animate>
  </rect>
</g><g transform="rotate(93.6 50 50)">
  <rect fill="#00305f" height="11" width="19" ry="5.5" rx="9.5" y="21.5" x="40.5">
    <animate repeatCount="indefinite" begin="-1.0138888888888888s" dur="1.3888888888888888s" keyTimes="0;1" values="1;0" attributeName="opacity"></animate>
  </rect>
</g><g transform="rotate(97.2 50 50)">
  <rect fill="#00305f" height="11" width="19" ry="5.5" rx="9.5" y="21.5" x="40.5">
    <animate repeatCount="indefinite" begin="-1s" dur="1.3888888888888888s" keyTimes="0;1" values="1;0" attributeName="opacity"></animate>
  </rect>
</g><g transform="rotate(100.8 50 50)">
  <rect fill="#00305f" height="11" width="19" ry="5.5" rx="9.5" y="21.5" x="40.5">
    <animate repeatCount="indefinite" begin="-0.9861111111111112s" dur="1.3888888888888888s" keyTimes="0;1" values="1;0" attributeName="opacity"></animate>
  </rect>
</g><g transform="rotate(104.4 50 50)">
  <rect fill="#00305f" height="11" width="19" ry="5.5" rx="9.5" y="21.5" x="40.5">
    <animate repeatCount="indefinite" begin="-0.9722222222222222s" dur="1.3888888888888888s" keyTimes="0;1" values="1;0" attributeName="opacity"></animate>
  </rect>
</g><g transform="rotate(108 50 50)">
  <rect fill="#00305f" height="11" width="19" ry="5.5" rx="9.5" y="21.5" x="40.5">
    <animate repeatCount="indefinite" begin="-0.9583333333333334s" dur="1.3888888888888888s" keyTimes="0;1" values="1;0" attributeName="opacity"></animate>
  </rect>
</g><g transform="rotate(111.6 50 50)">
  <rect fill="#00305f" height="11" width="19" ry="5.5" rx="9.5" y="21.5" x="40.5">
    <animate repeatCount="indefinite" begin="-0.9444444444444444s" dur="1.3888888888888888s" keyTimes="0;1" values="1;0" attributeName="opacity"></animate>
  </rect>
</g><g transform="rotate(115.2 50 50)">
  <rect fill="#00305f" height="11" width="19" ry="5.5" rx="9.5" y="21.5" x="40.5">
    <animate repeatCount="indefinite" begin="-0.9305555555555556s" dur="1.3888888888888888s" keyTimes="0;1" values="1;0" attributeName="opacity"></animate>
  </rect>
</g><g transform="rotate(118.8 50 50)">
  <rect fill="#00305f" height="11" width="19" ry="5.5" rx="9.5" y="21.5" x="40.5">
    <animate repeatCount="indefinite" begin="-0.9166666666666666s" dur="1.3888888888888888s" keyTimes="0;1" values="1;0" attributeName="opacity"></animate>
  </rect>
</g><g transform="rotate(122.4 50 50)">
  <rect fill="#00305f" height="11" width="19" ry="5.5" rx="9.5" y="21.5" x="40.5">
    <animate repeatCount="indefinite" begin="-0.9027777777777778s" dur="1.3888888888888888s" keyTimes="0;1" values="1;0" attributeName="opacity"></animate>
  </rect>
</g><g transform="rotate(126 50 50)">
  <rect fill="#00305f" height="11" width="19" ry="5.5" rx="9.5" y="21.5" x="40.5">
    <animate repeatCount="indefinite" begin="-0.8888888888888888s" dur="1.3888888888888888s" keyTimes="0;1" values="1;0" attributeName="opacity"></animate>
  </rect>
</g><g transform="rotate(129.6 50 50)">
  <rect fill="#00305f" height="11" width="19" ry="5.5" rx="9.5" y="21.5" x="40.5">
    <animate repeatCount="indefinite" begin="-0.875s" dur="1.3888888888888888s" keyTimes="0;1" values="1;0" attributeName="opacity"></animate>
  </rect>
</g><g transform="rotate(133.2 50 50)">
  <rect fill="#00305f" height="11" width="19" ry="5.5" rx="9.5" y="21.5" x="40.5">
    <animate repeatCount="indefinite" begin="-0.8611111111111112s" dur="1.3888888888888888s" keyTimes="0;1" values="1;0" attributeName="opacity"></animate>
  </rect>
</g><g transform="rotate(136.8 50 50)">
  <rect fill="#00305f" height="11" width="19" ry="5.5" rx="9.5" y="21.5" x="40.5">
    <animate repeatCount="indefinite" begin="-0.8472222222222222s" dur="1.3888888888888888s" keyTimes="0;1" values="1;0" attributeName="opacity"></animate>
  </rect>
</g><g transform="rotate(140.4 50 50)">
  <rect fill="#00305f" height="11" width="19" ry="5.5" rx="9.5" y="21.5" x="40.5">
    <animate repeatCount="indefinite" begin="-0.8333333333333334s" dur="1.3888888888888888s" keyTimes="0;1" values="1;0" attributeName="opacity"></animate>
  </rect>
</g><g transform="rotate(144 50 50)">
  <rect fill="#00305f" height="11" width="19" ry="5.5" rx="9.5" y="21.5" x="40.5">
    <animate repeatCount="indefinite" begin="-0.8194444444444444s" dur="1.3888888888888888s" keyTimes="0;1" values="1;0" attributeName="opacity"></animate>
  </rect>
</g><g transform="rotate(147.6 50 50)">
  <rect fill="#00305f" height="11" width="19" ry="5.5" rx="9.5" y="21.5" x="40.5">
    <animate repeatCount="indefinite" begin="-0.8055555555555556s" dur="1.3888888888888888s" keyTimes="0;1" values="1;0" attributeName="opacity"></animate>
  </rect>
</g><g transform="rotate(151.2 50 50)">
  <rect fill="#00305f" height="11" width="19" ry="5.5" rx="9.5" y="21.5" x="40.5">
    <animate repeatCount="indefinite" begin="-0.7916666666666666s" dur="1.3888888888888888s" keyTimes="0;1" values="1;0" attributeName="opacity"></animate>
  </rect>
</g><g transform="rotate(154.8 50 50)">
  <rect fill="#00305f" height="11" width="19" ry="5.5" rx="9.5" y="21.5" x="40.5">
    <animate repeatCount="indefinite" begin="-0.7777777777777778s" dur="1.3888888888888888s" keyTimes="0;1" values="1;0" attributeName="opacity"></animate>
  </rect>
</g><g transform="rotate(158.4 50 50)">
  <rect fill="#00305f" height="11" width="19" ry="5.5" rx="9.5" y="21.5" x="40.5">
    <animate repeatCount="indefinite" begin="-0.7638888888888888s" dur="1.3888888888888888s" keyTimes="0;1" values="1;0" attributeName="opacity"></animate>
  </rect>
</g><g transform="rotate(162 50 50)">
  <rect fill="#00305f" height="11" width="19" ry="5.5" rx="9.5" y="21.5" x="40.5">
    <animate repeatCount="indefinite" begin="-0.75s" dur="1.3888888888888888s" keyTimes="0;1" values="1;0" attributeName="opacity"></animate>
  </rect>
</g><g transform="rotate(165.6 50 50)">
  <rect fill="#00305f" height="11" width="19" ry="5.5" rx="9.5" y="21.5" x="40.5">
    <animate repeatCount="indefinite" begin="-0.7361111111111112s" dur="1.3888888888888888s" keyTimes="0;1" values="1;0" attributeName="opacity"></animate>
  </rect>
</g><g transform="rotate(169.2 50 50)">
  <rect fill="#00305f" height="11" width="19" ry="5.5" rx="9.5" y="21.5" x="40.5">
    <animate repeatCount="indefinite" begin="-0.7222222222222222s" dur="1.3888888888888888s" keyTimes="0;1" values="1;0" attributeName="opacity"></animate>
  </rect>
</g><g transform="rotate(172.8 50 50)">
  <rect fill="#00305f" height="11" width="19" ry="5.5" rx="9.5" y="21.5" x="40.5">
    <animate repeatCount="indefinite" begin="-0.7083333333333334s" dur="1.3888888888888888s" keyTimes="0;1" values="1;0" attributeName="opacity"></animate>
  </rect>
</g><g transform="rotate(176.4 50 50)">
  <rect fill="#00305f" height="11" width="19" ry="5.5" rx="9.5" y="21.5" x="40.5">
    <animate repeatCount="indefinite" begin="-0.6944444444444444s" dur="1.3888888888888888s" keyTimes="0;1" values="1;0" attributeName="opacity"></animate>
  </rect>
</g><g transform="rotate(180 50 50)">
  <rect fill="#00305f" height="11" width="19" ry="5.5" rx="9.5" y="21.5" x="40.5">
    <animate repeatCount="indefinite" begin="-0.6805555555555556s" dur="1.3888888888888888s" keyTimes="0;1" values="1;0" attributeName="opacity"></animate>
  </rect>
</g><g transform="rotate(183.6 50 50)">
  <rect fill="#00305f" height="11" width="19" ry="5.5" rx="9.5" y="21.5" x="40.5">
    <animate repeatCount="indefinite" begin="-0.6666666666666666s" dur="1.3888888888888888s" keyTimes="0;1" values="1;0" attributeName="opacity"></animate>
  </rect>
</g><g transform="rotate(187.2 50 50)">
  <rect fill="#00305f" height="11" width="19" ry="5.5" rx="9.5" y="21.5" x="40.5">
    <animate repeatCount="indefinite" begin="-0.6527777777777778s" dur="1.3888888888888888s" keyTimes="0;1" values="1;0" attributeName="opacity"></animate>
  </rect>
</g><g transform="rotate(190.8 50 50)">
  <rect fill="#00305f" height="11" width="19" ry="5.5" rx="9.5" y="21.5" x="40.5">
    <animate repeatCount="indefinite" begin="-0.6388888888888888s" dur="1.3888888888888888s" keyTimes="0;1" values="1;0" attributeName="opacity"></animate>
  </rect>
</g><g transform="rotate(194.4 50 50)">
  <rect fill="#00305f" height="11" width="19" ry="5.5" rx="9.5" y="21.5" x="40.5">
    <animate repeatCount="indefinite" begin="-0.625s" dur="1.3888888888888888s" keyTimes="0;1" values="1;0" attributeName="opacity"></animate>
  </rect>
</g><g transform="rotate(198 50 50)">
  <rect fill="#00305f" height="11" width="19" ry="5.5" rx="9.5" y="21.5" x="40.5">
    <animate repeatCount="indefinite" begin="-0.6111111111111112s" dur="1.3888888888888888s" keyTimes="0;1" values="1;0" attributeName="opacity"></animate>
  </rect>
</g><g transform="rotate(201.6 50 50)">
  <rect fill="#00305f" height="11" width="19" ry="5.5" rx="9.5" y="21.5" x="40.5">
    <animate repeatCount="indefinite" begin="-0.5972222222222222s" dur="1.3888888888888888s" keyTimes="0;1" values="1;0" attributeName="opacity"></animate>
  </rect>
</g><g transform="rotate(205.2 50 50)">
  <rect fill="#00305f" height="11" width="19" ry="5.5" rx="9.5" y="21.5" x="40.5">
    <animate repeatCount="indefinite" begin="-0.5833333333333334s" dur="1.3888888888888888s" keyTimes="0;1" values="1;0" attributeName="opacity"></animate>
  </rect>
</g><g transform="rotate(208.8 50 50)">
  <rect fill="#00305f" height="11" width="19" ry="5.5" rx="9.5" y="21.5" x="40.5">
    <animate repeatCount="indefinite" begin="-0.5694444444444444s" dur="1.3888888888888888s" keyTimes="0;1" values="1;0" attributeName="opacity"></animate>
  </rect>
</g><g transform="rotate(212.4 50 50)">
  <rect fill="#00305f" height="11" width="19" ry="5.5" rx="9.5" y="21.5" x="40.5">
    <animate repeatCount="indefinite" begin="-0.5555555555555556s" dur="1.3888888888888888s" keyTimes="0;1" values="1;0" attributeName="opacity"></animate>
  </rect>
</g><g transform="rotate(216 50 50)">
  <rect fill="#00305f" height="11" width="19" ry="5.5" rx="9.5" y="21.5" x="40.5">
    <animate repeatCount="indefinite" begin="-0.5416666666666666s" dur="1.3888888888888888s" keyTimes="0;1" values="1;0" attributeName="opacity"></animate>
  </rect>
</g><g transform="rotate(219.6 50 50)">
  <rect fill="#00305f" height="11" width="19" ry="5.5" rx="9.5" y="21.5" x="40.5">
    <animate repeatCount="indefinite" begin="-0.5277777777777778s" dur="1.3888888888888888s" keyTimes="0;1" values="1;0" attributeName="opacity"></animate>
  </rect>
</g><g transform="rotate(223.2 50 50)">
  <rect fill="#00305f" height="11" width="19" ry="5.5" rx="9.5" y="21.5" x="40.5">
    <animate repeatCount="indefinite" begin="-0.5138888888888888s" dur="1.3888888888888888s" keyTimes="0;1" values="1;0" attributeName="opacity"></animate>
  </rect>
</g><g transform="rotate(226.8 50 50)">
  <rect fill="#00305f" height="11" width="19" ry="5.5" rx="9.5" y="21.5" x="40.5">
    <animate repeatCount="indefinite" begin="-0.5s" dur="1.3888888888888888s" keyTimes="0;1" values="1;0" attributeName="opacity"></animate>
  </rect>
</g><g transform="rotate(230.4 50 50)">
  <rect fill="#00305f" height="11" width="19" ry="5.5" rx="9.5" y="21.5" x="40.5">
    <animate repeatCount="indefinite" begin="-0.4861111111111111s" dur="1.3888888888888888s" keyTimes="0;1" values="1;0" attributeName="opacity"></animate>
  </rect>
</g><g transform="rotate(234 50 50)">
  <rect fill="#00305f" height="11" width="19" ry="5.5" rx="9.5" y="21.5" x="40.5">
    <animate repeatCount="indefinite" begin="-0.4722222222222222s" dur="1.3888888888888888s" keyTimes="0;1" values="1;0" attributeName="opacity"></animate>
  </rect>
</g><g transform="rotate(237.6 50 50)">
  <rect fill="#00305f" height="11" width="19" ry="5.5" rx="9.5" y="21.5" x="40.5">
    <animate repeatCount="indefinite" begin="-0.4583333333333333s" dur="1.3888888888888888s" keyTimes="0;1" values="1;0" attributeName="opacity"></animate>
  </rect>
</g><g transform="rotate(241.2 50 50)">
  <rect fill="#00305f" height="11" width="19" ry="5.5" rx="9.5" y="21.5" x="40.5">
    <animate repeatCount="indefinite" begin="-0.4444444444444444s" dur="1.3888888888888888s" keyTimes="0;1" values="1;0" attributeName="opacity"></animate>
  </rect>
</g><g transform="rotate(244.8 50 50)">
  <rect fill="#00305f" height="11" width="19" ry="5.5" rx="9.5" y="21.5" x="40.5">
    <animate repeatCount="indefinite" begin="-0.4305555555555556s" dur="1.3888888888888888s" keyTimes="0;1" values="1;0" attributeName="opacity"></animate>
  </rect>
</g><g transform="rotate(248.4 50 50)">
  <rect fill="#00305f" height="11" width="19" ry="5.5" rx="9.5" y="21.5" x="40.5">
    <animate repeatCount="indefinite" begin="-0.4166666666666667s" dur="1.3888888888888888s" keyTimes="0;1" values="1;0" attributeName="opacity"></animate>
  </rect>
</g><g transform="rotate(252 50 50)">
  <rect fill="#00305f" height="11" width="19" ry="5.5" rx="9.5" y="21.5" x="40.5">
    <animate repeatCount="indefinite" begin="-0.4027777777777778s" dur="1.3888888888888888s" keyTimes="0;1" values="1;0" attributeName="opacity"></animate>
  </rect>
</g><g transform="rotate(255.6 50 50)">
  <rect fill="#00305f" height="11" width="19" ry="5.5" rx="9.5" y="21.5" x="40.5">
    <animate repeatCount="indefinite" begin="-0.3888888888888889s" dur="1.3888888888888888s" keyTimes="0;1" values="1;0" attributeName="opacity"></animate>
  </rect>
</g><g transform="rotate(259.2 50 50)">
  <rect fill="#00305f" height="11" width="19" ry="5.5" rx="9.5" y="21.5" x="40.5">
    <animate repeatCount="indefinite" begin="-0.375s" dur="1.3888888888888888s" keyTimes="0;1" values="1;0" attributeName="opacity"></animate>
  </rect>
</g><g transform="rotate(262.8 50 50)">
  <rect fill="#00305f" height="11" width="19" ry="5.5" rx="9.5" y="21.5" x="40.5">
    <animate repeatCount="indefinite" begin="-0.3611111111111111s" dur="1.3888888888888888s" keyTimes="0;1" values="1;0" attributeName="opacity"></animate>
  </rect>
</g><g transform="rotate(266.4 50 50)">
  <rect fill="#00305f" height="11" width="19" ry="5.5" rx="9.5" y="21.5" x="40.5">
    <animate repeatCount="indefinite" begin="-0.3472222222222222s" dur="1.3888888888888888s" keyTimes="0;1" values="1;0" attributeName="opacity"></animate>
  </rect>
</g><g transform="rotate(270 50 50)">
  <rect fill="#00305f" height="11" width="19" ry="5.5" rx="9.5" y="21.5" x="40.5">
    <animate repeatCount="indefinite" begin="-0.3333333333333333s" dur="1.3888888888888888s" keyTimes="0;1" values="1;0" attributeName="opacity"></animate>
  </rect>
</g><g transform="rotate(273.6 50 50)">
  <rect fill="#00305f" height="11" width="19" ry="5.5" rx="9.5" y="21.5" x="40.5">
    <animate repeatCount="indefinite" begin="-0.3194444444444444s" dur="1.3888888888888888s" keyTimes="0;1" values="1;0" attributeName="opacity"></animate>
  </rect>
</g><g transform="rotate(277.2 50 50)">
  <rect fill="#00305f" height="11" width="19" ry="5.5" rx="9.5" y="21.5" x="40.5">
    <animate repeatCount="indefinite" begin="-0.3055555555555556s" dur="1.3888888888888888s" keyTimes="0;1" values="1;0" attributeName="opacity"></animate>
  </rect>
</g><g transform="rotate(280.8 50 50)">
  <rect fill="#00305f" height="11" width="19" ry="5.5" rx="9.5" y="21.5" x="40.5">
    <animate repeatCount="indefinite" begin="-0.2916666666666667s" dur="1.3888888888888888s" keyTimes="0;1" values="1;0" attributeName="opacity"></animate>
  </rect>
</g><g transform="rotate(284.4 50 50)">
  <rect fill="#00305f" height="11" width="19" ry="5.5" rx="9.5" y="21.5" x="40.5">
    <animate repeatCount="indefinite" begin="-0.2777777777777778s" dur="1.3888888888888888s" keyTimes="0;1" values="1;0" attributeName="opacity"></animate>
  </rect>
</g><g transform="rotate(288 50 50)">
  <rect fill="#00305f" height="11" width="19" ry="5.5" rx="9.5" y="21.5" x="40.5">
    <animate repeatCount="indefinite" begin="-0.2638888888888889s" dur="1.3888888888888888s" keyTimes="0;1" values="1;0" attributeName="opacity"></animate>
  </rect>
</g><g transform="rotate(291.6 50 50)">
  <rect fill="#00305f" height="11" width="19" ry="5.5" rx="9.5" y="21.5" x="40.5">
    <animate repeatCount="indefinite" begin="-0.25s" dur="1.3888888888888888s" keyTimes="0;1" values="1;0" attributeName="opacity"></animate>
  </rect>
</g><g transform="rotate(295.2 50 50)">
  <rect fill="#00305f" height="11" width="19" ry="5.5" rx="9.5" y="21.5" x="40.5">
    <animate repeatCount="indefinite" begin="-0.2361111111111111s" dur="1.3888888888888888s" keyTimes="0;1" values="1;0" attributeName="opacity"></animate>
  </rect>
</g><g transform="rotate(298.8 50 50)">
  <rect fill="#00305f" height="11" width="19" ry="5.5" rx="9.5" y="21.5" x="40.5">
    <animate repeatCount="indefinite" begin="-0.2222222222222222s" dur="1.3888888888888888s" keyTimes="0;1" values="1;0" attributeName="opacity"></animate>
  </rect>
</g><g transform="rotate(302.4 50 50)">
  <rect fill="#00305f" height="11" width="19" ry="5.5" rx="9.5" y="21.5" x="40.5">
    <animate repeatCount="indefinite" begin="-0.20833333333333334s" dur="1.3888888888888888s" keyTimes="0;1" values="1;0" attributeName="opacity"></animate>
  </rect>
</g><g transform="rotate(306 50 50)">
  <rect fill="#00305f" height="11" width="19" ry="5.5" rx="9.5" y="21.5" x="40.5">
    <animate repeatCount="indefinite" begin="-0.19444444444444445s" dur="1.3888888888888888s" keyTimes="0;1" values="1;0" attributeName="opacity"></animate>
  </rect>
</g><g transform="rotate(309.6 50 50)">
  <rect fill="#00305f" height="11" width="19" ry="5.5" rx="9.5" y="21.5" x="40.5">
    <animate repeatCount="indefinite" begin="-0.18055555555555555s" dur="1.3888888888888888s" keyTimes="0;1" values="1;0" attributeName="opacity"></animate>
  </rect>
</g><g transform="rotate(313.2 50 50)">
  <rect fill="#00305f" height="11" width="19" ry="5.5" rx="9.5" y="21.5" x="40.5">
    <animate repeatCount="indefinite" begin="-0.16666666666666666s" dur="1.3888888888888888s" keyTimes="0;1" values="1;0" attributeName="opacity"></animate>
  </rect>
</g><g transform="rotate(316.8 50 50)">
  <rect fill="#00305f" height="11" width="19" ry="5.5" rx="9.5" y="21.5" x="40.5">
    <animate repeatCount="indefinite" begin="-0.1527777777777778s" dur="1.3888888888888888s" keyTimes="0;1" values="1;0" attributeName="opacity"></animate>
  </rect>
</g><g transform="rotate(320.4 50 50)">
  <rect fill="#00305f" height="11" width="19" ry="5.5" rx="9.5" y="21.5" x="40.5">
    <animate repeatCount="indefinite" begin="-0.1388888888888889s" dur="1.3888888888888888s" keyTimes="0;1" values="1;0" attributeName="opacity"></animate>
  </rect>
</g><g transform="rotate(324 50 50)">
  <rect fill="#00305f" height="11" width="19" ry="5.5" rx="9.5" y="21.5" x="40.5">
    <animate repeatCount="indefinite" begin="-0.125s" dur="1.3888888888888888s" keyTimes="0;1" values="1;0" attributeName="opacity"></animate>
  </rect>
</g><g transform="rotate(327.6 50 50)">
  <rect fill="#00305f" height="11" width="19" ry="5.5" rx="9.5" y="21.5" x="40.5">
    <animate repeatCount="indefinite" begin="-0.1111111111111111s" dur="1.3888888888888888s" keyTimes="0;1" values="1;0" attributeName="opacity"></animate>
  </rect>
</g><g transform="rotate(331.2 50 50)">
  <rect fill="#00305f" height="11" width="19" ry="5.5" rx="9.5" y="21.5" x="40.5">
    <animate repeatCount="indefinite" begin="-0.09722222222222222s" dur="1.3888888888888888s" keyTimes="0;1" values="1;0" attributeName="opacity"></animate>
  </rect>
</g><g transform="rotate(334.8 50 50)">
  <rect fill="#00305f" height="11" width="19" ry="5.5" rx="9.5" y="21.5" x="40.5">
    <animate repeatCount="indefinite" begin="-0.08333333333333333s" dur="1.3888888888888888s" keyTimes="0;1" values="1;0" attributeName="opacity"></animate>
  </rect>
</g><g transform="rotate(338.4 50 50)">
  <rect fill="#00305f" height="11" width="19" ry="5.5" rx="9.5" y="21.5" x="40.5">
    <animate repeatCount="indefinite" begin="-0.06944444444444445s" dur="1.3888888888888888s" keyTimes="0;1" values="1;0" attributeName="opacity"></animate>
  </rect>
</g><g transform="rotate(342 50 50)">
  <rect fill="#00305f" height="11" width="19" ry="5.5" rx="9.5" y="21.5" x="40.5">
    <animate repeatCount="indefinite" begin="-0.05555555555555555s" dur="1.3888888888888888s" keyTimes="0;1" values="1;0" attributeName="opacity"></animate>
  </rect>
</g><g transform="rotate(345.6 50 50)">
  <rect fill="#00305f" height="11" width="19" ry="5.5" rx="9.5" y="21.5" x="40.5">
    <animate repeatCount="indefinite" begin="-0.041666666666666664s" dur="1.3888888888888888s" keyTimes="0;1" values="1;0" attributeName="opacity"></animate>
  </rect>
</g><g transform="rotate(349.2 50 50)">
  <rect fill="#00305f" height="11" width="19" ry="5.5" rx="9.5" y="21.5" x="40.5">
    <animate repeatCount="indefinite" begin="-0.027777777777777776s" dur="1.3888888888888888s" keyTimes="0;1" values="1;0" attributeName="opacity"></animate>
  </rect>
</g><g transform="rotate(352.8 50 50)">
  <rect fill="#00305f" height="11" width="19" ry="5.5" rx="9.5" y="21.5" x="40.5">
    <animate repeatCount="indefinite" begin="-0.013888888888888888s" dur="1.3888888888888888s" keyTimes="0;1" values="1;0" attributeName="opacity"></animate>
  </rect>
</g><g transform="rotate(356.4 50 50)">
  <rect fill="#00305f" height="11" width="19" ry="5.5" rx="9.5" y="21.5" x="40.5">
    <animate repeatCount="indefinite" begin="0s" dur="1.3888888888888888s" keyTimes="0;1" values="1;0" attributeName="opacity"></animate>
  </rect>
</g><g></g></g><!-- [ldio] generated by https://loading.io --></svg>